<?xml version="1.0" encoding="UTF-8"?><svg xmlns="http://www.w3.org/2000/svg" viewBox="0 0 121.76 22.93"><defs><style>.f{fill:#fff;}</style></defs><g id="a"/><g id="b"><g id="c"><g id="d"><g id="e"><g><path class="f" d="M5.39,7.54h.88l-.4-1.28H3.15l-.4,1.28h.94v1.61H.32v-1.61H.98L3.4,.26h2.35l2.37,7.28h.64v1.61h-3.37v-1.61Zm-1.78-2.78h1.79l-.9-2.89-.89,2.89Z"/><path class="f" d="M9.6,.26h3.8V1.88h-.94V7.54h1.93c.05,0,.1-.01,.15-.04s.09-.07,.13-.11,.07-.1,.09-.15,.04-.11,.04-.16v-1.19h1.9v3.26h-7.1v-1.61h.92V1.88h-.92V.26Z"/><path class="f" d="M18.3,7.54h.92V1.82h-1.08v1.15h-1.91V.26h8.08V2.96h-1.92V1.82h-1.22V7.54h.94v1.61h-3.8v-1.61h-.01Z"/><path class="f" d="M25.18,.26h7.07V3.29h-1.91v-1.26h-2.28v1.75h1.76v1.7h-1.76v2.06h2.28v-1.58h1.91v3.18h-7.07v-1.61h.93V2.03h-.93V.26Z"/><path class="f" d="M35.48,.26h3.41c.41,0,.8,.05,1.17,.16s.72,.25,1.04,.45,.62,.42,.88,.69,.49,.57,.68,.89,.33,.68,.43,1.06,.15,.77,.15,1.18-.05,.8-.15,1.18-.25,.73-.43,1.06-.41,.63-.68,.9-.56,.5-.88,.7-.67,.34-1.04,.45-.76,.16-1.17,.16h-3.41v-1.61h.71V1.88h-.71V.26Zm2.65,1.61V7.54h.74c.32,0,.62-.07,.9-.22s.53-.35,.73-.61,.37-.56,.49-.9,.18-.72,.18-1.12-.06-.76-.18-1.11-.29-.64-.49-.9-.45-.45-.73-.6-.58-.22-.9-.22h-.74Z"/><path class="f" d="M48.36,9.3c-.4,0-.79-.05-1.15-.16s-.71-.26-1.03-.46-.61-.44-.87-.72-.48-.59-.67-.93-.33-.71-.43-1.1-.15-.8-.15-1.22,.05-.83,.15-1.23,.24-.76,.43-1.1,.41-.65,.67-.93,.55-.52,.87-.72,.66-.35,1.03-.46,.75-.16,1.15-.16,.79,.05,1.16,.16c.37,.11,.71,.26,1.03,.46s.61,.44,.87,.72,.48,.59,.67,.93,.33,.71,.43,1.1,.15,.8,.15,1.23-.05,.83-.15,1.22-.25,.76-.43,1.1-.41,.65-.67,.93-.55,.52-.87,.72-.66,.35-1.03,.46-.75,.16-1.16,.16Zm0-1.84c.34,0,.65-.07,.93-.22s.53-.35,.73-.6,.36-.54,.47-.88,.17-.69,.17-1.06-.06-.74-.17-1.07-.27-.63-.48-.88-.45-.45-.73-.6-.59-.22-.93-.22-.64,.07-.93,.22-.52,.35-.73,.6-.36,.55-.48,.88-.17,.69-.17,1.07,.06,.73,.17,1.06,.27,.63,.48,.88,.45,.45,.73,.6,.59,.22,.93,.22h0Z"/><path class="f" d="M53.59,.26h4.7c.46,0,.87,.07,1.22,.21s.66,.32,.91,.55,.43,.49,.57,.8,.2,.62,.2,.95c0,.3-.03,.56-.1,.79s-.16,.43-.28,.6c-.12,.17-.27,.33-.45,.47s-.38,.26-.62,.37c.2,.1,.38,.26,.53,.47s.27,.48,.35,.81l.3,1.15h.73v1.73h-2.57l-.35-2.11c-.04-.25-.09-.47-.16-.65s-.17-.33-.29-.45-.27-.2-.44-.25-.38-.08-.62-.08h-.76v1.93h.81v1.61h-3.68v-1.61h.92V1.88h-.92V.26Zm2.87,1.61v2.15h1.17c.22,0,.42-.02,.6-.06s.33-.11,.46-.19,.22-.2,.29-.33,.1-.29,.1-.47c0-.34-.12-.61-.37-.8s-.61-.29-1.08-.29h-1.17Z"/><path class="f" d="M62.58,.26h6.87V3.29h-1.9v-1.25h-2.1v1.87h1.82v1.71h-1.82v1.92h.94v1.61h-3.8v-1.61h.92V2.04h-.92V.26h-.01Z"/><path class="f" d="M74.6,2.77c-.02-.14-.07-.27-.14-.39s-.17-.23-.29-.31-.25-.16-.4-.21-.31-.08-.47-.08c-.15,0-.29,.02-.42,.05s-.24,.08-.34,.14-.17,.15-.23,.25-.08,.22-.08,.36c0,.18,.04,.32,.11,.42s.17,.19,.29,.25,.25,.12,.4,.16,.29,.08,.42,.13l1.61,.54c.22,.08,.43,.19,.63,.32s.36,.3,.51,.5,.25,.42,.34,.67,.12,.54,.12,.86c0,.43-.08,.82-.24,1.18s-.38,.66-.67,.91-.63,.45-1.03,.59-.84,.21-1.32,.21c-.34,0-.66-.04-.96-.11s-.58-.19-.83-.33-.47-.32-.66-.52-.33-.43-.44-.68h-.6v-1.76h2.12v.36c0,.18,.03,.34,.08,.49s.14,.28,.25,.39,.26,.19,.43,.25,.37,.09,.6,.09c.35,0,.62-.08,.8-.24s.28-.39,.28-.68c0-.15-.03-.27-.1-.37s-.15-.18-.25-.25-.21-.13-.34-.17-.25-.09-.37-.13l-1.34-.43c-.25-.08-.5-.19-.74-.33s-.45-.32-.63-.53-.33-.46-.43-.74-.16-.61-.16-.97c0-.42,.08-.8,.23-1.13s.38-.61,.66-.83,.62-.4,1-.52,.81-.18,1.27-.18c.36,0,.7,.04,1.01,.13,.31,.09,.58,.2,.83,.34s.45,.3,.62,.48,.3,.37,.39,.57h.59v1.77h-2.12v-.52h0Z"/><path class="f" d="M83.63,2.96c-.22-.31-.42-.53-.59-.67s-.37-.22-.57-.28-.42-.08-.64-.08c-.33,0-.63,.07-.91,.22s-.52,.35-.73,.6-.37,.54-.48,.88-.18,.69-.18,1.06,.06,.74,.17,1.07,.27,.63,.48,.88,.45,.45,.73,.59,.59,.22,.93,.22c.23,0,.45-.04,.66-.11s.39-.18,.55-.3,.31-.27,.44-.43,.22-.33,.29-.51l1.89,.53c-.12,.38-.3,.74-.53,1.06s-.52,.61-.85,.85-.7,.43-1.11,.56-.86,.21-1.33,.21c-.4,0-.79-.05-1.15-.16s-.71-.26-1.03-.46-.61-.44-.87-.72-.48-.59-.67-.93-.33-.71-.43-1.1-.15-.8-.15-1.23c0-.64,.11-1.23,.33-1.79s.53-1.04,.91-1.46,.84-.74,1.36-.98,1.08-.36,1.68-.36c.48,0,.88,.06,1.21,.18s.69,.35,1.08,.71h1.31v1.98h-1.81v-.03Z"/><path class="f" d="M92.61,.26h3.81V1.88h-.94V7.54h.94v1.61h-3.81v-1.61h.93v-2.27h-4.01v2.27h.94v1.61h-3.8v-1.61h.92V1.88h-.92V.26h3.8V1.88h-.94v1.85h4.01V1.88h-.93V.26Z"/><path class="f" d="M97.34,.26h3.56V1.88h-.81v3.69c0,.34,.04,.62,.11,.86s.18,.43,.32,.57,.3,.26,.49,.33,.39,.1,.62,.1,.44-.03,.63-.09,.35-.16,.49-.3,.24-.33,.31-.57,.11-.54,.11-.9V1.88h-.94V.26h3.56V1.88h-.71v3.46c0,.62-.09,1.18-.27,1.67s-.43,.9-.74,1.23c-.31,.33-.68,.59-1.11,.77s-.88,.26-1.36,.26-.93-.09-1.35-.26-.78-.43-1.09-.76-.56-.73-.74-1.2-.27-1.01-.27-1.61V1.88h-.8V.26h-.01Z"/><path class="f" d="M106.76,.26h3.8V1.88h-.94V7.54h1.93c.05,0,.1-.01,.15-.04s.09-.07,.13-.11,.07-.1,.09-.15,.04-.11,.04-.16v-1.19h1.9v3.26h-7.1v-1.61h.92V1.88h-.92V.26Z"/><path class="f" d="M114.69,.26h7.07V3.29h-1.91v-1.26h-2.28v1.75h1.76v1.7h-1.76v2.06h2.28v-1.58h1.91v3.18h-7.07v-1.61h.93V2.03h-.93V.26Z"/></g><g><path class="f" d="M0,13.86H3.7c.39,0,.76,.05,1.09,.16s.62,.26,.87,.46,.43,.45,.57,.75,.21,.65,.21,1.04c0,.22-.04,.44-.12,.66s-.19,.42-.33,.6-.31,.35-.51,.5-.41,.26-.64,.33c.1,.04,.2,.1,.3,.18s.19,.18,.28,.29,.17,.25,.24,.39,.13,.3,.17,.47l.49,1.93h.77v1.11h-1.72l-.66-2.7c-.12-.48-.31-.84-.55-1.07s-.59-.34-1.02-.34H1.99v3.11h.89v1.01H0v-1.01H.84v-6.86H0v-1.01Zm1.99,1.01v2.79h1.71c.22,0,.43-.03,.61-.09s.35-.15,.48-.26,.24-.26,.32-.44,.11-.38,.11-.61c0-.44-.13-.79-.4-1.03s-.69-.37-1.27-.37H1.99Z"/><path class="f" d="M11.81,22.18c-.23,.21-.49,.39-.76,.53s-.6,.21-.95,.21c-.3,0-.57-.05-.82-.14s-.46-.22-.64-.38-.32-.35-.42-.57-.15-.44-.15-.69,.04-.49,.11-.69,.18-.37,.3-.52,.28-.27,.45-.37,.35-.18,.53-.24,.38-.1,.57-.13,.38-.04,.55-.04c.28,0,.52,0,.71,.03s.37,.04,.52,.07v-.5c0-.21-.03-.4-.09-.56s-.15-.29-.26-.39-.25-.18-.41-.23-.33-.08-.53-.08c-.18,0-.36,.01-.53,.04s-.33,.06-.47,.1-.28,.09-.4,.14-.23,.11-.31,.17l-.36-.76c.14-.09,.3-.18,.47-.26s.35-.15,.54-.21,.38-.1,.58-.13,.39-.05,.58-.05c.35,0,.67,.04,.95,.13s.52,.21,.71,.39,.35,.4,.45,.67,.16,.6,.16,.98v3.04h.67v1.01h-1.76v-.56h.01Zm-1.48-.19c.14,0,.29-.02,.43-.05s.28-.08,.41-.14,.25-.13,.36-.21,.2-.16,.28-.25v-1.37h-1.26c-.21,0-.4,.02-.58,.07s-.32,.12-.45,.21-.23,.2-.3,.33-.11,.29-.11,.46c0,.16,.03,.3,.09,.42s.14,.22,.25,.3,.24,.14,.38,.18,.31,.06,.49,.06h.01Z"/><path class="f" d="M14.83,13.63h1.92v3.71h.04c.11-.11,.24-.21,.38-.31s.29-.18,.45-.25,.32-.12,.49-.16,.34-.06,.53-.06c.32,0,.62,.04,.88,.13s.48,.23,.67,.41,.33,.42,.42,.71,.15,.63,.15,1.02v2.91h.91v1.01h-2.88v-1.01h.83v-2.77c0-.46-.12-.82-.35-1.06s-.58-.36-1.02-.36c-.25,0-.5,.06-.76,.18s-.5,.27-.73,.45v3.56h.88v1.01h-2.88v-1.01h.91v-7.1h-.83v-1.01h0Z"/><path class="f" d="M26.71,21.73h.86v-2.77c0-.46-.12-.82-.35-1.06s-.58-.36-1.02-.36c-.25,0-.51,.06-.77,.18s-.5,.27-.73,.45v3.56h.86v1.01h-2.84v-1.01h.84v-4.05h-.84v-1.01h1.93v.71h.01c.13-.11,.27-.22,.41-.32s.3-.19,.46-.26,.33-.13,.5-.18,.36-.06,.55-.06c.32,0,.62,.04,.88,.13s.48,.23,.67,.41,.33,.42,.42,.71,.15,.63,.15,1.02v2.91h.84v1.01h-2.84v-1.01h.01Z"/><path class="f" d="M34.12,17.88c-.08-.12-.17-.21-.3-.28s-.26-.12-.4-.16-.29-.05-.43-.05c-.16,0-.3,.02-.43,.05s-.24,.09-.34,.15-.17,.15-.22,.24-.08,.2-.08,.32c0,.2,.06,.36,.18,.48,.12,.12,.33,.23,.62,.33l1.17,.41c.5,.17,.87,.4,1.1,.69s.35,.63,.35,1.04c0,.27-.05,.52-.16,.74s-.26,.42-.46,.57-.43,.28-.71,.37-.59,.13-.93,.13c-.47,0-.86-.08-1.15-.23s-.53-.35-.69-.6h-.61v-1.01h1.21c0,.17,.04,.31,.11,.43s.17,.22,.29,.29,.25,.13,.4,.16,.3,.05,.46,.05,.3-.02,.44-.06,.26-.09,.37-.16,.19-.16,.25-.26,.09-.22,.09-.35c0-.2-.06-.36-.19-.5s-.34-.26-.65-.37l-1.16-.43c-.47-.17-.82-.38-1.05-.64s-.34-.58-.34-.98c0-.26,.05-.5,.14-.71s.23-.41,.42-.57,.4-.28,.67-.37,.56-.13,.9-.13c.43,0,.8,.06,1.09,.18s.56,.33,.79,.62h.57v1.01h-1.2c0-.16-.04-.3-.11-.42v.02Z"/><path class="f" d="M40.12,13.63h1.92v8.11h.89v1.01h-1.98v-.5c-.2,.2-.42,.35-.68,.47s-.55,.17-.88,.17c-.41,0-.79-.07-1.15-.21s-.66-.35-.92-.63-.46-.61-.61-1.01-.22-.86-.22-1.37c0-.47,.07-.9,.21-1.28s.34-.71,.6-.98,.57-.48,.93-.63,.77-.23,1.21-.23c.29,0,.56,.03,.8,.1s.47,.18,.7,.34v-2.33h-.83v-1.03Zm-.58,8.3c.32,0,.6-.05,.81-.14s.42-.24,.6-.43v-3.4c-.2-.16-.42-.28-.67-.36s-.51-.11-.78-.11-.5,.05-.73,.14-.42,.24-.59,.42-.3,.41-.4,.67-.15,.57-.15,.91c0,.38,.05,.71,.14,.99s.22,.52,.39,.72,.37,.34,.6,.44,.49,.15,.77,.15h.01Z"/><path class="f" d="M43.74,19.71c0-.48,.08-.92,.23-1.31s.36-.73,.63-1.02,.59-.5,.96-.65,.78-.23,1.22-.23,.86,.08,1.23,.23,.69,.37,.96,.65,.47,.62,.62,1.01,.22,.83,.22,1.31-.07,.91-.22,1.3-.36,.74-.62,1.02-.58,.51-.96,.67-.78,.24-1.23,.24-.87-.08-1.24-.23-.69-.38-.96-.66-.47-.62-.62-1.02-.22-.83-.23-1.31h0Zm1.15,0c0,.35,.05,.66,.15,.94s.24,.52,.41,.72,.38,.35,.6,.46,.47,.16,.73,.16,.52-.05,.75-.16,.43-.26,.61-.45,.31-.44,.4-.72,.15-.6,.15-.95-.05-.69-.15-.98-.23-.52-.4-.71-.37-.34-.61-.43-.49-.15-.76-.15-.5,.05-.73,.15-.43,.24-.6,.43-.31,.43-.41,.71-.15,.61-.15,.98h0Z"/><path class="f" d="M55.17,17.96h-1.11v-.38c-.13,0-.26,.02-.4,.07s-.26,.12-.38,.22-.22,.23-.31,.38-.15,.34-.19,.55v2.93h1.03v1.01h-3.01v-1.01h.84v-4.05h-.84v-1.01h1.94v.84c.07-.12,.15-.24,.24-.35s.19-.2,.29-.28,.23-.14,.36-.19,.27-.07,.42-.07h.57c.18,0,.36,0,.54,.01v1.32h.01Z"/><path class="f" d="M58.39,16.67h1.41v.88h-1.41v4.18h.95v1.01h-2.95v-1.01h.91v-4.18h-1v-.88h1v-.95c0-.35,.06-.66,.15-.92s.23-.48,.4-.66,.38-.31,.62-.39,.51-.13,.81-.13c.21,0,.39,0,.56,.03s.31,.05,.44,.08,.24,.07,.34,.11,.19,.08,.27,.12l-.33,.78c-.12-.07-.29-.12-.49-.17s-.41-.07-.63-.07c-.32,0-.58,.1-.76,.3s-.28,.5-.28,.89v.98h-.01Z"/></g></g></g></g></g></svg>